<svg xmlns="http://www.w3.org/2000/svg" xmlns:xlink="http://www.w3.org/1999/xlink" width="256" zoomAndPan="magnify" viewBox="0 0 192 191.999996" height="256" preserveAspectRatio="xMidYMid meet" version="1.0"><defs><g/><clipPath id="a1b2f67d5d"><path d="M 60.589844 61.050781 L 131.511719 61.050781 L 131.511719 130.753906 L 60.589844 130.753906 Z M 60.589844 61.050781 " clip-rule="nonzero"/></clipPath></defs><path fill="#38b6ff" d="M 84.238281 86.152344 L 82.792969 89.527344 L 85.757812 89.527344 L 84.40625 86.152344 L 84.238281 86.152344 " fill-opacity="1" fill-rule="nonzero"/><g clip-path="url(#a1b2f67d5d)"><path fill="#38b6ff" d="M 124.871094 124.066406 C 124.871094 124.808594 124.269531 125.40625 123.527344 125.40625 C 122.789062 125.40625 122.1875 124.808594 122.1875 124.066406 C 122.1875 123.332031 122.789062 122.730469 123.527344 122.730469 C 124.269531 122.730469 124.871094 123.332031 124.871094 124.066406 Z M 114.441406 84.886719 C 114.441406 85.222656 114.1875 85.476562 113.847656 85.476562 L 112.238281 85.476562 L 112.238281 91.558594 L 113.847656 91.558594 C 114.1875 91.558594 114.441406 91.808594 114.441406 92.148438 L 114.441406 93.835938 C 114.441406 94.171875 114.1875 94.425781 113.847656 94.425781 L 106.898438 94.425781 C 106.566406 94.425781 106.304688 94.171875 106.304688 93.835938 L 106.304688 92.148438 C 106.304688 91.808594 106.566406 91.558594 106.898438 91.558594 L 108.511719 91.558594 L 108.511719 85.476562 L 106.898438 85.476562 C 106.566406 85.476562 106.304688 85.222656 106.304688 84.886719 L 106.304688 83.199219 C 106.304688 82.859375 106.566406 82.605469 106.898438 82.605469 L 113.847656 82.605469 C 114.1875 82.605469 114.441406 82.859375 114.441406 83.199219 Z M 113.683594 110.050781 C 113.683594 110.785156 113.078125 111.390625 112.339844 111.390625 C 111.597656 111.390625 110.996094 110.785156 110.996094 110.050781 C 110.996094 109.3125 111.597656 108.710938 112.339844 108.710938 C 113.078125 108.710938 113.683594 109.3125 113.683594 110.050781 Z M 109.578125 123.363281 C 109.578125 124.101562 108.976562 124.703125 108.234375 124.703125 C 107.492188 124.703125 106.890625 124.101562 106.890625 123.363281 C 106.890625 122.625 107.492188 122.023438 108.234375 122.023438 C 108.976562 122.023438 109.578125 122.625 109.578125 123.363281 Z M 99.449219 91.21875 L 96.65625 91.21875 L 96.65625 93.835938 C 96.65625 94.171875 96.398438 94.425781 96.0625 94.425781 L 93.519531 94.425781 C 93.179688 94.425781 92.925781 94.171875 92.925781 93.835938 L 92.925781 83.199219 C 92.925781 82.859375 93.179688 82.605469 93.519531 82.605469 L 99.449219 82.605469 C 103.425781 82.605469 105.292969 84.464844 105.292969 86.910156 C 105.292969 89.359375 103.425781 91.21875 99.449219 91.21875 Z M 97.242188 107.125 C 97.242188 107.863281 96.640625 108.464844 95.898438 108.464844 C 95.15625 108.464844 94.554688 107.863281 94.554688 107.125 C 94.554688 106.386719 95.15625 105.789062 95.898438 105.789062 C 96.640625 105.789062 97.242188 106.386719 97.242188 107.125 Z M 101.246094 128.40625 C 101.246094 129.140625 100.644531 129.746094 99.902344 129.746094 C 99.164062 129.746094 98.558594 129.140625 98.558594 128.40625 C 98.558594 127.667969 99.164062 127.066406 99.902344 127.066406 C 100.644531 127.066406 101.246094 127.667969 101.246094 128.40625 Z M 97.242188 120.132812 C 97.242188 120.875 96.640625 121.472656 95.898438 121.472656 C 95.15625 121.472656 94.554688 120.875 94.554688 120.132812 C 94.554688 119.398438 95.15625 118.796875 95.898438 118.796875 C 96.640625 118.796875 97.242188 119.398438 97.242188 120.132812 Z M 93.160156 128.40625 C 93.160156 129.140625 92.558594 129.746094 91.816406 129.746094 C 91.078125 129.746094 90.472656 129.140625 90.472656 128.40625 C 90.472656 127.667969 91.078125 127.066406 91.816406 127.066406 C 92.558594 127.066406 93.160156 127.667969 93.160156 128.40625 Z M 91.183594 94.425781 L 88.304688 94.425781 C 87.964844 94.425781 87.675781 94.171875 87.539062 93.835938 L 86.945312 92.316406 L 81.613281 92.316406 L 81.019531 93.835938 C 80.882812 94.171875 80.59375 94.425781 80.253906 94.425781 L 77.542969 94.425781 C 77.207031 94.425781 76.96875 94.171875 77.121094 93.835938 L 81.867188 83.199219 C 82.015625 82.859375 82.289062 82.605469 82.628906 82.605469 L 86.097656 82.605469 C 86.4375 82.605469 86.710938 82.839844 86.863281 83.179688 L 91.609375 93.835938 C 91.757812 94.171875 91.523438 94.425781 91.183594 94.425781 Z M 84.953125 107.125 C 84.953125 107.863281 84.347656 108.464844 83.609375 108.464844 C 82.867188 108.464844 82.265625 107.863281 82.265625 107.125 C 82.265625 106.386719 82.867188 105.789062 83.609375 105.789062 C 84.347656 105.789062 84.953125 106.386719 84.953125 107.125 Z M 85.128906 124.773438 C 85.128906 125.515625 84.527344 126.113281 83.789062 126.113281 C 83.046875 126.113281 82.445312 125.515625 82.445312 124.773438 C 82.445312 124.035156 83.046875 123.433594 83.789062 123.433594 C 84.527344 123.433594 85.128906 124.035156 85.128906 124.773438 Z M 76.847656 128.40625 C 76.847656 129.140625 76.246094 129.746094 75.507812 129.746094 C 74.765625 129.746094 74.160156 129.140625 74.160156 128.40625 C 74.160156 127.667969 74.765625 127.066406 75.507812 127.066406 C 76.246094 127.066406 76.847656 127.667969 76.847656 128.40625 Z M 117.390625 103.015625 C 125.179688 103.015625 131.511719 96.703125 131.511719 88.945312 C 131.511719 81.960938 126.382812 76.152344 119.683594 75.054688 C 118.472656 67.132812 111.589844 61.042969 103.304688 61.042969 C 97.570312 61.042969 92.375 63.96875 89.382812 68.613281 C 88.230469 68.296875 87.039062 68.136719 85.832031 68.136719 C 79.167969 68.136719 73.632812 73.042969 72.671875 79.421875 C 72.589844 79.417969 72.511719 79.417969 72.433594 79.417969 C 65.902344 79.417969 60.589844 84.710938 60.589844 91.21875 C 60.589844 97.722656 65.902344 103.015625 72.433594 103.015625 L 78.996094 103.015625 L 78.996094 119.222656 L 75 123.207031 L 75 126.113281 C 73.941406 126.34375 73.148438 127.285156 73.148438 128.40625 C 73.148438 129.703125 74.207031 130.753906 75.507812 130.753906 C 76.804688 130.753906 77.859375 129.703125 77.859375 128.40625 C 77.859375 127.285156 77.066406 126.34375 76.007812 126.113281 L 76.007812 123.625 L 80.011719 119.636719 L 80.011719 103.015625 L 83.101562 103.015625 L 83.101562 104.832031 C 82.046875 105.0625 81.25 106.003906 81.25 107.125 C 81.25 108.417969 82.308594 109.472656 83.609375 109.472656 C 84.910156 109.472656 85.964844 108.417969 85.964844 107.125 C 85.964844 106.003906 85.171875 105.0625 84.117188 104.832031 L 84.117188 103.015625 L 87.207031 103.015625 L 87.207031 109.839844 L 83.285156 113.75 L 83.285156 122.484375 C 82.222656 122.714844 81.433594 123.652344 81.433594 124.773438 C 81.433594 126.070312 82.492188 127.121094 83.789062 127.121094 C 85.085938 127.121094 86.144531 126.070312 86.144531 124.773438 C 86.144531 123.652344 85.351562 122.714844 84.292969 122.484375 L 84.292969 114.171875 L 88.21875 110.257812 L 88.21875 103.015625 L 91.308594 103.015625 L 91.308594 126.113281 C 90.253906 126.34375 89.460938 127.285156 89.460938 128.40625 C 89.460938 129.703125 90.515625 130.753906 91.816406 130.753906 C 93.117188 130.753906 94.175781 129.703125 94.175781 128.40625 C 94.175781 127.285156 93.378906 126.34375 92.324219 126.113281 L 92.324219 103.015625 L 95.414062 103.015625 L 95.414062 104.828125 C 94.347656 105.050781 93.546875 105.996094 93.546875 107.125 C 93.546875 108.417969 94.601562 109.472656 95.898438 109.472656 C 97.199219 109.472656 98.253906 108.417969 98.253906 107.125 C 98.253906 106.015625 97.476562 105.074219 96.429688 104.835938 L 96.429688 103.015625 L 99.519531 103.015625 L 99.519531 111.355469 L 95.390625 115.464844 L 95.390625 117.84375 C 94.335938 118.078125 93.546875 119.015625 93.546875 120.132812 C 93.546875 121.429688 94.601562 122.484375 95.898438 122.484375 C 97.199219 122.484375 98.253906 121.429688 98.253906 120.132812 C 98.253906 119.015625 97.460938 118.078125 96.40625 117.84375 L 96.40625 115.882812 L 100.53125 111.769531 L 100.53125 103.015625 L 103.625 103.015625 L 103.625 116.195312 L 99.394531 120.410156 L 99.394531 126.113281 C 98.339844 126.34375 97.546875 127.285156 97.546875 128.40625 C 97.546875 129.703125 98.601562 130.753906 99.902344 130.753906 C 101.199219 130.753906 102.257812 129.703125 102.257812 128.40625 C 102.257812 127.285156 101.460938 126.34375 100.40625 126.113281 L 100.40625 120.828125 L 104.636719 116.613281 L 104.636719 103.015625 L 107.726562 103.015625 L 107.726562 121.070312 C 106.671875 121.300781 105.882812 122.238281 105.882812 123.363281 C 105.882812 124.65625 106.9375 125.710938 108.234375 125.710938 C 109.535156 125.710938 110.589844 124.65625 110.589844 123.363281 C 110.589844 122.238281 109.796875 121.300781 108.742188 121.070312 L 108.742188 103.015625 L 111.832031 103.015625 L 111.832031 107.761719 C 110.777344 107.988281 109.980469 108.929688 109.980469 110.050781 C 109.980469 111.347656 111.042969 112.398438 112.339844 112.398438 C 113.640625 112.398438 114.695312 111.347656 114.695312 110.050781 C 114.695312 108.929688 113.902344 107.988281 112.84375 107.761719 L 112.84375 103.015625 L 115.9375 103.015625 L 115.9375 110.257812 L 123.023438 117.320312 L 123.023438 121.777344 C 121.964844 122.003906 121.171875 122.949219 121.171875 124.066406 C 121.171875 125.363281 122.226562 126.417969 123.527344 126.417969 C 124.824219 126.417969 125.882812 125.363281 125.882812 124.066406 C 125.882812 122.949219 125.09375 122.003906 124.03125 121.777344 L 124.03125 116.898438 L 116.949219 109.839844 L 116.949219 103.015625 L 117.390625 103.015625 " fill-opacity="1" fill-rule="nonzero"/></g><path fill="#38b6ff" d="M 99.449219 85.308594 L 96.65625 85.308594 L 96.65625 88.515625 L 99.449219 88.515625 C 100.71875 88.515625 101.394531 87.839844 101.394531 86.910156 C 101.394531 85.984375 100.71875 85.308594 99.449219 85.308594 " fill-opacity="1" fill-rule="nonzero"/><g fill="#a6a6a6" fill-opacity="1"><g transform="translate(65.44888, 128.925296)"><g><path d="M 0.875 0 L 0.875 -6.953125 L 2.359375 -6.953125 L 2.359375 -1.21875 L 5.171875 -1.21875 L 5.171875 0 Z M 0.875 0 "/></g></g></g><g fill="#a6a6a6" fill-opacity="1"><g transform="translate(70.959437, 128.925296)"><g><path d="M 0.703125 -6.703125 C 0.703125 -7.171875 0.960938 -7.40625 1.484375 -7.40625 C 2.015625 -7.40625 2.28125 -7.171875 2.28125 -6.703125 C 2.28125 -6.472656 2.210938 -6.296875 2.078125 -6.171875 C 1.953125 -6.046875 1.753906 -5.984375 1.484375 -5.984375 C 0.960938 -5.984375 0.703125 -6.222656 0.703125 -6.703125 Z M 2.21875 0 L 0.765625 0 L 0.765625 -5.328125 L 2.21875 -5.328125 Z M 2.21875 0 "/></g></g></g><g fill="#a6a6a6" fill-opacity="1"><g transform="translate(73.936186, 128.925296)"><g><path d="M 2.03125 0 L 0 -5.328125 L 1.515625 -5.328125 L 2.546875 -2.296875 C 2.660156 -1.910156 2.734375 -1.546875 2.765625 -1.203125 L 2.796875 -1.203125 C 2.804688 -1.503906 2.875 -1.867188 3 -2.296875 L 4.03125 -5.328125 L 5.546875 -5.328125 L 3.515625 0 Z M 2.03125 0 "/></g></g></g><g fill="#a6a6a6" fill-opacity="1"><g transform="translate(79.484844, 128.925296)"><g><path d="M 0.703125 -6.703125 C 0.703125 -7.171875 0.960938 -7.40625 1.484375 -7.40625 C 2.015625 -7.40625 2.28125 -7.171875 2.28125 -6.703125 C 2.28125 -6.472656 2.210938 -6.296875 2.078125 -6.171875 C 1.953125 -6.046875 1.753906 -5.984375 1.484375 -5.984375 C 0.960938 -5.984375 0.703125 -6.222656 0.703125 -6.703125 Z M 2.21875 0 L 0.765625 0 L 0.765625 -5.328125 L 2.21875 -5.328125 Z M 2.21875 0 "/></g></g></g><g fill="#a6a6a6" fill-opacity="1"><g transform="translate(82.461594, 128.925296)"><g><path d="M 5.671875 0 L 4.21875 0 L 4.21875 -3.109375 C 4.21875 -3.492188 4.148438 -3.78125 4.015625 -3.96875 C 3.878906 -4.164062 3.660156 -4.265625 3.359375 -4.265625 C 2.953125 -4.265625 2.660156 -4.128906 2.484375 -3.859375 C 2.304688 -3.585938 2.21875 -3.132812 2.21875 -2.5 L 2.21875 0 L 0.765625 0 L 0.765625 -5.328125 L 1.875 -5.328125 L 2.0625 -4.640625 L 2.140625 -4.640625 C 2.304688 -4.898438 2.53125 -5.09375 2.8125 -5.21875 C 3.09375 -5.351562 3.414062 -5.421875 3.78125 -5.421875 C 4.40625 -5.421875 4.875 -5.253906 5.1875 -4.921875 C 5.507812 -4.585938 5.671875 -4.101562 5.671875 -3.46875 Z M 5.671875 0 "/></g></g></g><g fill="#a6a6a6" fill-opacity="1"><g transform="translate(88.872316, 128.925296)"><g><path d="M 5.390625 -5.328125 L 5.390625 -4.578125 L 4.5625 -4.375 C 4.71875 -4.132812 4.796875 -3.867188 4.796875 -3.578125 C 4.796875 -3.003906 4.59375 -2.554688 4.1875 -2.234375 C 3.789062 -1.910156 3.238281 -1.75 2.53125 -1.75 L 2.265625 -1.765625 L 2.0625 -1.796875 C 1.90625 -1.679688 1.828125 -1.550781 1.828125 -1.40625 C 1.828125 -1.195312 2.09375 -1.09375 2.625 -1.09375 L 3.53125 -1.09375 C 4.113281 -1.09375 4.554688 -0.96875 4.859375 -0.71875 C 5.171875 -0.46875 5.328125 -0.101562 5.328125 0.375 C 5.328125 1 5.066406 1.484375 4.546875 1.828125 C 4.035156 2.171875 3.289062 2.34375 2.3125 2.34375 C 1.570312 2.34375 1.003906 2.210938 0.609375 1.953125 C 0.222656 1.691406 0.03125 1.328125 0.03125 0.859375 C 0.03125 0.546875 0.128906 0.28125 0.328125 0.0625 C 0.523438 -0.15625 0.816406 -0.3125 1.203125 -0.40625 C 1.054688 -0.46875 0.925781 -0.566406 0.8125 -0.703125 C 0.707031 -0.847656 0.65625 -1.003906 0.65625 -1.171875 C 0.65625 -1.367188 0.710938 -1.535156 0.828125 -1.671875 C 0.941406 -1.804688 1.113281 -1.941406 1.34375 -2.078125 C 1.0625 -2.191406 0.835938 -2.382812 0.671875 -2.65625 C 0.503906 -2.925781 0.421875 -3.238281 0.421875 -3.59375 C 0.421875 -4.175781 0.609375 -4.625 0.984375 -4.9375 C 1.367188 -5.257812 1.910156 -5.421875 2.609375 -5.421875 C 2.765625 -5.421875 2.941406 -5.40625 3.140625 -5.375 C 3.347656 -5.351562 3.476562 -5.335938 3.53125 -5.328125 Z M 1.28125 0.75 C 1.28125 0.945312 1.375 1.101562 1.5625 1.21875 C 1.757812 1.332031 2.03125 1.390625 2.375 1.390625 C 2.894531 1.390625 3.300781 1.316406 3.59375 1.171875 C 3.894531 1.035156 4.046875 0.84375 4.046875 0.59375 C 4.046875 0.394531 3.957031 0.253906 3.78125 0.171875 C 3.601562 0.0976562 3.332031 0.0625 2.96875 0.0625 L 2.21875 0.0625 C 1.957031 0.0625 1.734375 0.125 1.546875 0.25 C 1.367188 0.375 1.28125 0.539062 1.28125 0.75 Z M 1.8125 -3.578125 C 1.8125 -3.285156 1.875 -3.054688 2 -2.890625 C 2.132812 -2.722656 2.335938 -2.640625 2.609375 -2.640625 C 2.878906 -2.640625 3.078125 -2.722656 3.203125 -2.890625 C 3.335938 -3.054688 3.40625 -3.285156 3.40625 -3.578125 C 3.40625 -4.222656 3.140625 -4.546875 2.609375 -4.546875 C 2.078125 -4.546875 1.8125 -4.222656 1.8125 -3.578125 Z M 1.8125 -3.578125 "/></g></g></g><g fill="#a6a6a6" fill-opacity="1"><g transform="translate(94.382872, 128.925296)"><g/></g></g><g fill="#a6a6a6" fill-opacity="1"><g transform="translate(96.916679, 128.925296)"><g><path d="M 0.875 0 L 0.875 -6.953125 L 2.359375 -6.953125 L 2.359375 -1.21875 L 5.171875 -1.21875 L 5.171875 0 Z M 0.875 0 "/></g></g></g><g fill="#a6a6a6" fill-opacity="1"><g transform="translate(102.427235, 128.925296)"><g><path d="M 4.140625 0 L 3.859375 -0.71875 L 3.828125 -0.71875 C 3.578125 -0.414062 3.320312 -0.203125 3.0625 -0.078125 C 2.8125 0.0351562 2.476562 0.09375 2.0625 0.09375 C 1.550781 0.09375 1.144531 -0.0507812 0.84375 -0.34375 C 0.550781 -0.632812 0.40625 -1.050781 0.40625 -1.59375 C 0.40625 -2.15625 0.601562 -2.566406 1 -2.828125 C 1.394531 -3.097656 1.992188 -3.25 2.796875 -3.28125 L 3.71875 -3.3125 L 3.71875 -3.546875 C 3.71875 -4.085938 3.441406 -4.359375 2.890625 -4.359375 C 2.460938 -4.359375 1.960938 -4.226562 1.390625 -3.96875 L 0.90625 -4.953125 C 1.519531 -5.273438 2.195312 -5.4375 2.9375 -5.4375 C 3.65625 -5.4375 4.203125 -5.28125 4.578125 -4.96875 C 4.960938 -4.65625 5.15625 -4.179688 5.15625 -3.546875 L 5.15625 0 Z M 3.71875 -2.46875 L 3.15625 -2.453125 C 2.726562 -2.429688 2.410156 -2.351562 2.203125 -2.21875 C 2.003906 -2.082031 1.90625 -1.867188 1.90625 -1.578125 C 1.90625 -1.171875 2.140625 -0.96875 2.609375 -0.96875 C 2.941406 -0.96875 3.207031 -1.0625 3.40625 -1.25 C 3.613281 -1.445312 3.71875 -1.707031 3.71875 -2.03125 Z M 3.71875 -2.46875 "/></g></g></g><g fill="#a6a6a6" fill-opacity="1"><g transform="translate(108.318815, 128.925296)"><g><path d="M 3.71875 -5.421875 C 4.351562 -5.421875 4.847656 -5.175781 5.203125 -4.6875 C 5.554688 -4.195312 5.734375 -3.523438 5.734375 -2.671875 C 5.734375 -1.796875 5.546875 -1.113281 5.171875 -0.625 C 4.804688 -0.144531 4.3125 0.09375 3.6875 0.09375 C 3.0625 0.09375 2.570312 -0.128906 2.21875 -0.578125 L 2.109375 -0.578125 L 1.875 0 L 0.765625 0 L 0.765625 -7.40625 L 2.21875 -7.40625 L 2.21875 -5.6875 C 2.21875 -5.46875 2.195312 -5.113281 2.15625 -4.625 L 2.21875 -4.625 C 2.550781 -5.15625 3.050781 -5.421875 3.71875 -5.421875 Z M 3.25 -4.265625 C 2.894531 -4.265625 2.632812 -4.148438 2.46875 -3.921875 C 2.300781 -3.703125 2.21875 -3.34375 2.21875 -2.84375 L 2.21875 -2.6875 C 2.21875 -2.113281 2.300781 -1.703125 2.46875 -1.453125 C 2.632812 -1.203125 2.90625 -1.078125 3.28125 -1.078125 C 3.570312 -1.078125 3.804688 -1.210938 3.984375 -1.484375 C 4.160156 -1.765625 4.25 -2.164062 4.25 -2.6875 C 4.25 -3.207031 4.160156 -3.597656 3.984375 -3.859375 C 3.804688 -4.128906 3.5625 -4.265625 3.25 -4.265625 Z M 3.25 -4.265625 "/></g></g></g><g fill="#ff1616" fill-opacity="1"><g transform="translate(103.520936, 136.638745)"><g><path d="M 6 0 L 5.40625 -1.9375 L 2.4375 -1.9375 L 1.859375 0 L 0 0 L 2.859375 -8.15625 L 4.96875 -8.15625 L 7.84375 0 Z M 5 -3.375 C 4.445312 -5.125 4.132812 -6.113281 4.0625 -6.34375 C 4 -6.570312 3.953125 -6.753906 3.921875 -6.890625 C 3.804688 -6.421875 3.457031 -5.25 2.875 -3.375 Z M 5 -3.375 "/></g></g><g transform="translate(111.36835, 136.638745)"><g><path d="M 2.75 -4.296875 L 3.3125 -4.296875 C 3.84375 -4.296875 4.238281 -4.398438 4.5 -4.609375 C 4.757812 -4.816406 4.890625 -5.125 4.890625 -5.53125 C 4.890625 -5.925781 4.78125 -6.21875 4.5625 -6.40625 C 4.34375 -6.601562 4 -6.703125 3.53125 -6.703125 L 2.75 -6.703125 Z M 6.625 -5.59375 C 6.625 -4.71875 6.351562 -4.046875 5.8125 -3.578125 C 5.269531 -3.117188 4.492188 -2.890625 3.484375 -2.890625 L 2.75 -2.890625 L 2.75 0 L 1.015625 0 L 1.015625 -8.125 L 3.609375 -8.125 C 4.597656 -8.125 5.347656 -7.910156 5.859375 -7.484375 C 6.367188 -7.054688 6.625 -6.425781 6.625 -5.59375 Z M 6.625 -5.59375 "/></g></g><g transform="translate(118.510442, 136.638745)"><g><path d="M 1.015625 0 L 1.015625 -8.125 L 2.75 -8.125 L 2.75 0 Z M 1.015625 0 "/></g></g><g transform="translate(122.275868, 136.638745)"><g><path d="M 5.21875 -1.84375 C 5.21875 -1.207031 4.992188 -0.722656 4.546875 -0.390625 C 4.109375 -0.0546875 3.453125 0.109375 2.578125 0.109375 C 2.117188 0.109375 1.726562 0.078125 1.40625 0.015625 C 1.09375 -0.046875 0.796875 -0.132812 0.515625 -0.25 L 0.515625 -1.65625 C 0.835938 -1.5 1.191406 -1.367188 1.578125 -1.265625 C 1.972656 -1.171875 2.320312 -1.125 2.625 -1.125 C 3.238281 -1.125 3.546875 -1.300781 3.546875 -1.65625 C 3.546875 -1.789062 3.503906 -1.898438 3.421875 -1.984375 C 3.347656 -2.066406 3.207031 -2.160156 3 -2.265625 C 2.800781 -2.367188 2.535156 -2.492188 2.203125 -2.640625 C 1.722656 -2.835938 1.367188 -3.019531 1.140625 -3.1875 C 0.921875 -3.363281 0.757812 -3.5625 0.65625 -3.78125 C 0.5625 -4 0.515625 -4.269531 0.515625 -4.59375 C 0.515625 -5.144531 0.726562 -5.570312 1.15625 -5.875 C 1.582031 -6.175781 2.1875 -6.328125 2.96875 -6.328125 C 3.71875 -6.328125 4.445312 -6.164062 5.15625 -5.84375 L 4.640625 -4.609375 C 4.328125 -4.742188 4.035156 -4.851562 3.765625 -4.9375 C 3.492188 -5.03125 3.21875 -5.078125 2.9375 -5.078125 C 2.4375 -5.078125 2.1875 -4.941406 2.1875 -4.671875 C 2.1875 -4.515625 2.265625 -4.378906 2.421875 -4.265625 C 2.585938 -4.160156 2.945312 -4 3.5 -3.78125 C 3.976562 -3.582031 4.332031 -3.394531 4.5625 -3.21875 C 4.789062 -3.050781 4.957031 -2.859375 5.0625 -2.640625 C 5.164062 -2.421875 5.21875 -2.15625 5.21875 -1.84375 Z M 5.21875 -1.84375 "/></g></g></g></svg>