<svg xmlns="http://www.w3.org/2000/svg" xmlns:xlink="http://www.w3.org/1999/xlink" width="256" zoomAndPan="magnify" viewBox="0 0 192 191.999996" height="256" preserveAspectRatio="xMidYMid meet" version="1.0"><defs><g/><clipPath id="d7436af21e"><path d="M 62.589844 63.148438 L 95 63.148438 L 95 96 L 62.589844 96 Z M 62.589844 63.148438 " clip-rule="nonzero"/></clipPath><clipPath id="9700821a3e"><path d="M 63 99 L 103 99 L 103 130.648438 L 63 130.648438 Z M 63 99 " clip-rule="nonzero"/></clipPath><clipPath id="30e896dd62"><path d="M 89 63.148438 L 129 63.148438 L 129 95 L 89 95 Z M 89 63.148438 " clip-rule="nonzero"/></clipPath><clipPath id="16e752b5e3"><path d="M 97 98 L 129 98 L 129 130.648438 L 97 130.648438 Z M 97 98 " clip-rule="nonzero"/></clipPath></defs><rect x="-19.2" width="230.4" fill="#ffffff" y="-19.2" height="230.399995" fill-opacity="1"/><rect x="-19.2" width="230.4" fill="#ffffff" y="-19.2" height="230.399995" fill-opacity="1"/><g clip-path="url(#d7436af21e)"><path fill="#9823c6" d="M 83.285156 84.023438 C 84.066406 83.230469 84.636719 82.484375 85.003906 81.785156 L 94.199219 64.765625 C 94.582031 64.066406 94.65625 63.609375 94.425781 63.390625 C 94.214844 63.160156 93.753906 63.234375 93.050781 63.621094 L 76.335938 72.984375 C 75.632812 73.386719 74.90625 73.972656 74.160156 74.730469 C 73.378906 75.523438 72.804688 76.265625 72.4375 76.964844 L 63.222656 93.941406 C 62.824219 94.640625 62.742188 95.105469 62.96875 95.339844 C 63.183594 95.558594 63.640625 95.472656 64.34375 95.082031 L 81.105469 85.769531 C 81.808594 85.363281 82.535156 84.78125 83.28125 84.023438 Z M 83.285156 84.023438 " fill-opacity="1" fill-rule="evenodd"/></g><path fill="#ffc34e" d="M 122.085938 90.398438 C 121.960938 89.5 121.617188 88.761719 121.054688 88.1875 L 104.570312 71.453125 C 104.003906 70.878906 103.390625 70.640625 102.734375 70.730469 C 102.0625 70.828125 101.535156 71.226562 101.152344 71.941406 L 91.9375 88.929688 C 91.554688 89.628906 91.433594 90.4375 91.570312 91.351562 C 91.691406 92.25 92.027344 92.988281 92.578125 93.5625 L 109.0625 110.28125 C 109.613281 110.855469 110.222656 111.089844 110.894531 110.980469 C 111.566406 110.886719 112.09375 110.492188 112.476562 109.792969 L 121.695312 92.816406 C 122.078125 92.101562 122.207031 91.296875 122.085938 90.394531 Z M 122.085938 90.398438 " fill-opacity="1" fill-rule="evenodd"/><g clip-path="url(#9700821a3e)"><path fill="#ff3e3c" d="M 102.773438 119.136719 C 102.878906 118.453125 102.648438 117.832031 102.082031 117.273438 L 85.613281 100.53125 C 85.046875 99.96875 84.320312 99.628906 83.433594 99.503906 C 82.53125 99.367188 81.738281 99.488281 81.050781 99.878906 L 64.3125 109.238281 C 63.625 109.628906 63.238281 110.160156 63.144531 110.84375 C 63.039062 111.511719 63.265625 112.132812 63.832031 112.707031 L 80.316406 129.449219 C 80.882812 130.023438 81.609375 130.371094 82.492188 130.496094 C 83.378906 130.621094 84.175781 130.492188 84.878906 130.101562 L 101.59375 120.742188 C 102.28125 120.351562 102.667969 119.820312 102.761719 119.136719 Z M 102.773438 119.136719 " fill-opacity="1" fill-rule="evenodd"/></g><g clip-path="url(#30e896dd62)"><path fill="#26c4ff" d="M 128.671875 82.949219 C 128.761719 82.269531 128.535156 81.640625 127.984375 81.066406 L 111.5 64.347656 C 110.949219 63.773438 110.230469 63.421875 109.34375 63.296875 C 108.441406 63.175781 107.648438 63.304688 106.960938 63.695312 L 90.222656 73.03125 C 89.519531 73.421875 89.121094 73.953125 89.03125 74.636719 C 88.9375 75.320312 89.175781 75.949219 89.742188 76.523438 L 106.226562 93.265625 C 106.792969 93.839844 107.515625 94.1875 108.402344 94.3125 C 109.289062 94.4375 110.078125 94.304688 110.765625 93.917969 L 127.480469 84.558594 C 128.179688 84.167969 128.578125 83.632812 128.671875 82.949219 Z M 128.671875 82.949219 " fill-opacity="1" fill-rule="evenodd"/></g><g clip-path="url(#16e752b5e3)"><path fill="#fe0fa6" d="M 128.855469 98.386719 C 128.640625 98.15625 128.183594 98.230469 127.480469 98.617188 L 110.742188 107.933594 C 110.039062 108.335938 109.304688 108.917969 108.542969 109.679688 C 107.777344 110.46875 107.203125 111.214844 106.820312 111.914062 L 97.652344 128.9375 C 97.269531 129.632812 97.183594 130.101562 97.398438 130.335938 C 97.628906 130.566406 98.085938 130.480469 98.773438 130.078125 L 115.488281 120.71875 C 116.175781 120.328125 116.910156 119.746094 117.6875 118.972656 C 118.425781 118.195312 119.011719 117.449219 119.410156 116.738281 L 128.625 99.761719 C 129.007812 99.0625 129.085938 98.605469 128.855469 98.386719 Z M 128.855469 98.386719 " fill-opacity="1" fill-rule="evenodd"/></g><path fill="#98d843" d="M 99.980469 104.867188 C 100.359375 104.167969 100.492188 103.359375 100.371094 102.445312 C 100.246094 101.542969 99.902344 100.804688 99.335938 100.230469 L 82.851562 83.492188 C 82.285156 82.917969 81.675781 82.683594 81.019531 82.792969 C 80.347656 82.886719 79.820312 83.28125 79.4375 83.980469 L 70.21875 100.976562 C 69.839844 101.691406 69.714844 102.5 69.851562 103.398438 C 69.976562 104.296875 70.3125 105.035156 70.863281 105.609375 L 87.347656 122.328125 C 87.898438 122.902344 88.507812 123.144531 89.179688 123.050781 C 89.851562 122.957031 90.378906 122.554688 90.761719 121.839844 Z M 99.980469 104.867188 " fill-opacity="1" fill-rule="evenodd"/><g fill="#303030" fill-opacity="1"><g transform="translate(61.585442, 128.609153)"><g><path d="M 6.65625 -3.546875 C 6.65625 -2.398438 6.328125 -1.519531 5.671875 -0.90625 C 5.015625 -0.300781 4.070312 0 2.84375 0 L 0.875 0 L 0.875 -6.953125 L 3.0625 -6.953125 C 4.195312 -6.953125 5.078125 -6.648438 5.703125 -6.046875 C 6.335938 -5.453125 6.65625 -4.617188 6.65625 -3.546875 Z M 5.125 -3.515625 C 5.125 -5.003906 4.460938 -5.75 3.140625 -5.75 L 2.359375 -5.75 L 2.359375 -1.21875 L 2.984375 -1.21875 C 4.410156 -1.21875 5.125 -1.984375 5.125 -3.515625 Z M 5.125 -3.515625 "/></g></g></g><g fill="#303030" fill-opacity="1"><g transform="translate(68.805839, 128.609153)"><g><path d="M 1.921875 -2.671875 C 1.921875 -2.140625 2.003906 -1.738281 2.171875 -1.46875 C 2.347656 -1.207031 2.628906 -1.078125 3.015625 -1.078125 C 3.410156 -1.078125 3.691406 -1.207031 3.859375 -1.46875 C 4.023438 -1.738281 4.109375 -2.140625 4.109375 -2.671875 C 4.109375 -3.203125 4.019531 -3.597656 3.84375 -3.859375 C 3.675781 -4.117188 3.398438 -4.25 3.015625 -4.25 C 2.628906 -4.25 2.347656 -4.117188 2.171875 -3.859375 C 2.003906 -3.597656 1.921875 -3.203125 1.921875 -2.671875 Z M 5.59375 -2.671875 C 5.59375 -1.804688 5.363281 -1.128906 4.90625 -0.640625 C 4.457031 -0.148438 3.820312 0.09375 3 0.09375 C 2.488281 0.09375 2.035156 -0.015625 1.640625 -0.234375 C 1.253906 -0.460938 0.957031 -0.785156 0.75 -1.203125 C 0.539062 -1.617188 0.4375 -2.109375 0.4375 -2.671875 C 0.4375 -3.535156 0.660156 -4.207031 1.109375 -4.6875 C 1.566406 -5.175781 2.207031 -5.421875 3.03125 -5.421875 C 3.539062 -5.421875 3.988281 -5.304688 4.375 -5.078125 C 4.769531 -4.859375 5.070312 -4.539062 5.28125 -4.125 C 5.488281 -3.71875 5.59375 -3.234375 5.59375 -2.671875 Z M 5.59375 -2.671875 "/></g></g></g><g fill="#303030" fill-opacity="1"><g transform="translate(74.845063, 128.609153)"><g><path d="M 7.65625 0 L 5.96875 0 L 5.03125 -3.65625 C 5 -3.78125 4.941406 -4.046875 4.859375 -4.453125 C 4.773438 -4.867188 4.722656 -5.144531 4.703125 -5.28125 C 4.691406 -5.113281 4.644531 -4.835938 4.5625 -4.453125 C 4.488281 -4.078125 4.429688 -3.804688 4.390625 -3.640625 L 3.453125 0 L 1.78125 0 L 0 -6.953125 L 1.453125 -6.953125 L 2.34375 -3.15625 C 2.5 -2.457031 2.613281 -1.851562 2.6875 -1.34375 C 2.695312 -1.519531 2.734375 -1.796875 2.796875 -2.171875 C 2.867188 -2.554688 2.9375 -2.851562 3 -3.0625 L 4.015625 -6.953125 L 5.40625 -6.953125 L 6.421875 -3.0625 C 6.472656 -2.882812 6.53125 -2.613281 6.59375 -2.25 C 6.65625 -1.894531 6.707031 -1.59375 6.75 -1.34375 C 6.78125 -1.582031 6.828125 -1.882812 6.890625 -2.25 C 6.960938 -2.625 7.03125 -2.925781 7.09375 -3.15625 L 7.96875 -6.953125 L 9.421875 -6.953125 Z M 7.65625 0 "/></g></g></g><g fill="#303030" fill-opacity="1"><g transform="translate(84.275397, 128.609153)"><g><path d="M 2.96875 -4.390625 C 2.65625 -4.390625 2.410156 -4.289062 2.234375 -4.09375 C 2.066406 -3.894531 1.96875 -3.617188 1.9375 -3.265625 L 3.984375 -3.265625 C 3.972656 -3.617188 3.875 -3.894531 3.6875 -4.09375 C 3.507812 -4.289062 3.269531 -4.390625 2.96875 -4.390625 Z M 3.171875 0.09375 C 2.316406 0.09375 1.644531 -0.140625 1.15625 -0.609375 C 0.675781 -1.085938 0.4375 -1.757812 0.4375 -2.625 C 0.4375 -3.519531 0.660156 -4.207031 1.109375 -4.6875 C 1.554688 -5.175781 2.171875 -5.421875 2.953125 -5.421875 C 3.703125 -5.421875 4.285156 -5.207031 4.703125 -4.78125 C 5.128906 -4.351562 5.34375 -3.757812 5.34375 -3 L 5.34375 -2.296875 L 1.90625 -2.296875 C 1.925781 -1.890625 2.050781 -1.566406 2.28125 -1.328125 C 2.507812 -1.097656 2.828125 -0.984375 3.234375 -0.984375 C 3.554688 -0.984375 3.859375 -1.015625 4.140625 -1.078125 C 4.429688 -1.148438 4.734375 -1.257812 5.046875 -1.40625 L 5.046875 -0.28125 C 4.785156 -0.15625 4.507812 -0.0625 4.21875 0 C 3.9375 0.0625 3.585938 0.09375 3.171875 0.09375 Z M 3.171875 0.09375 "/></g></g></g><g fill="#303030" fill-opacity="1"><g transform="translate(90.038379, 128.609153)"><g><path d="M 2.21875 0 L 0.765625 0 L 0.765625 -7.40625 L 2.21875 -7.40625 Z M 2.21875 0 "/></g></g></g><g fill="#303030" fill-opacity="1"><g transform="translate(93.015128, 128.609153)"><g><path d="M 2.21875 0 L 0.765625 0 L 0.765625 -7.40625 L 2.21875 -7.40625 Z M 2.21875 0 "/></g></g></g><g fill="#f80a10" fill-opacity="1"><g transform="translate(77.230185, 138.393759)"><g><path d="M 7.765625 -4.140625 C 7.765625 -2.804688 7.378906 -1.78125 6.609375 -1.0625 C 5.847656 -0.351562 4.753906 0 3.328125 0 L 1.015625 0 L 1.015625 -8.125 L 3.578125 -8.125 C 4.898438 -8.125 5.925781 -7.769531 6.65625 -7.0625 C 7.394531 -6.363281 7.765625 -5.390625 7.765625 -4.140625 Z M 5.96875 -4.09375 C 5.96875 -5.832031 5.195312 -6.703125 3.65625 -6.703125 L 2.75 -6.703125 L 2.75 -1.421875 L 3.484375 -1.421875 C 5.140625 -1.421875 5.96875 -2.3125 5.96875 -4.09375 Z M 5.96875 -4.09375 "/></g></g><g transform="translate(85.649634, 138.393759)"><g><path d="M 4.828125 0 L 4.5 -0.84375 L 4.453125 -0.84375 C 4.171875 -0.488281 3.878906 -0.238281 3.578125 -0.09375 C 3.273438 0.0390625 2.882812 0.109375 2.40625 0.109375 C 1.800781 0.109375 1.328125 -0.0546875 0.984375 -0.390625 C 0.648438 -0.734375 0.484375 -1.222656 0.484375 -1.859375 C 0.484375 -2.515625 0.710938 -3 1.171875 -3.3125 C 1.628906 -3.625 2.320312 -3.796875 3.25 -3.828125 L 4.328125 -3.859375 L 4.328125 -4.140625 C 4.328125 -4.765625 4.003906 -5.078125 3.359375 -5.078125 C 2.867188 -5.078125 2.285156 -4.925781 1.609375 -4.625 L 1.0625 -5.78125 C 1.769531 -6.15625 2.5625 -6.34375 3.4375 -6.34375 C 4.269531 -6.34375 4.90625 -6.160156 5.34375 -5.796875 C 5.789062 -5.429688 6.015625 -4.878906 6.015625 -4.140625 L 6.015625 0 Z M 4.328125 -2.875 L 3.671875 -2.859375 C 3.179688 -2.835938 2.816406 -2.742188 2.578125 -2.578125 C 2.335938 -2.421875 2.21875 -2.175781 2.21875 -1.84375 C 2.21875 -1.363281 2.488281 -1.125 3.03125 -1.125 C 3.425781 -1.125 3.738281 -1.238281 3.96875 -1.46875 C 4.207031 -1.695312 4.328125 -1.992188 4.328125 -2.359375 Z M 4.328125 -2.875 "/></g></g><g transform="translate(92.519593, 138.393759)"><g><path d="M 3.5 -1.234375 C 3.800781 -1.234375 4.160156 -1.300781 4.578125 -1.4375 L 4.578125 -0.171875 C 4.148438 0.015625 3.628906 0.109375 3.015625 0.109375 C 2.335938 0.109375 1.84375 -0.0625 1.53125 -0.40625 C 1.226562 -0.75 1.078125 -1.257812 1.078125 -1.9375 L 1.078125 -4.9375 L 0.265625 -4.9375 L 0.265625 -5.65625 L 1.1875 -6.21875 L 1.6875 -7.53125 L 2.765625 -7.53125 L 2.765625 -6.203125 L 4.5 -6.203125 L 4.5 -4.9375 L 2.765625 -4.9375 L 2.765625 -1.9375 C 2.765625 -1.695312 2.832031 -1.519531 2.96875 -1.40625 C 3.101562 -1.289062 3.28125 -1.234375 3.5 -1.234375 Z M 3.5 -1.234375 "/></g></g><g transform="translate(97.456855, 138.393759)"><g><path d="M 4.828125 0 L 4.5 -0.84375 L 4.453125 -0.84375 C 4.171875 -0.488281 3.878906 -0.238281 3.578125 -0.09375 C 3.273438 0.0390625 2.882812 0.109375 2.40625 0.109375 C 1.800781 0.109375 1.328125 -0.0546875 0.984375 -0.390625 C 0.648438 -0.734375 0.484375 -1.222656 0.484375 -1.859375 C 0.484375 -2.515625 0.710938 -3 1.171875 -3.3125 C 1.628906 -3.625 2.320312 -3.796875 3.25 -3.828125 L 4.328125 -3.859375 L 4.328125 -4.140625 C 4.328125 -4.765625 4.003906 -5.078125 3.359375 -5.078125 C 2.867188 -5.078125 2.285156 -4.925781 1.609375 -4.625 L 1.0625 -5.78125 C 1.769531 -6.15625 2.5625 -6.34375 3.4375 -6.34375 C 4.269531 -6.34375 4.90625 -6.160156 5.34375 -5.796875 C 5.789062 -5.429688 6.015625 -4.878906 6.015625 -4.140625 L 6.015625 0 Z M 4.328125 -2.875 L 3.671875 -2.859375 C 3.179688 -2.835938 2.816406 -2.742188 2.578125 -2.578125 C 2.335938 -2.421875 2.21875 -2.175781 2.21875 -1.84375 C 2.21875 -1.363281 2.488281 -1.125 3.03125 -1.125 C 3.425781 -1.125 3.738281 -1.238281 3.96875 -1.46875 C 4.207031 -1.695312 4.328125 -1.992188 4.328125 -2.359375 Z M 4.328125 -2.875 "/></g></g><g transform="translate(104.326814, 138.393759)"><g><path d="M 3.40625 0.109375 C 1.476562 0.109375 0.515625 -0.953125 0.515625 -3.078125 C 0.515625 -4.128906 0.773438 -4.929688 1.296875 -5.484375 C 1.828125 -6.046875 2.582031 -6.328125 3.5625 -6.328125 C 4.28125 -6.328125 4.925781 -6.1875 5.5 -5.90625 L 5 -4.59375 C 4.726562 -4.695312 4.476562 -4.78125 4.25 -4.84375 C 4.019531 -4.914062 3.789062 -4.953125 3.5625 -4.953125 C 2.675781 -4.953125 2.234375 -4.328125 2.234375 -3.078125 C 2.234375 -1.867188 2.675781 -1.265625 3.5625 -1.265625 C 3.882812 -1.265625 4.179688 -1.304688 4.453125 -1.390625 C 4.734375 -1.472656 5.015625 -1.609375 5.296875 -1.796875 L 5.296875 -0.34375 C 5.023438 -0.175781 4.75 -0.0625 4.46875 0 C 4.1875 0.0703125 3.832031 0.109375 3.40625 0.109375 Z M 3.40625 0.109375 "/></g></g><g transform="translate(110.174888, 138.393759)"><g><path d="M 5.28125 0 L 5.0625 -0.796875 L 4.96875 -0.796875 C 4.789062 -0.503906 4.535156 -0.28125 4.203125 -0.125 C 3.867188 0.03125 3.488281 0.109375 3.0625 0.109375 C 2.332031 0.109375 1.78125 -0.0820312 1.40625 -0.46875 C 1.039062 -0.863281 0.859375 -1.425781 0.859375 -2.15625 L 0.859375 -6.203125 L 2.546875 -6.203125 L 2.546875 -2.578125 C 2.546875 -2.128906 2.625 -1.789062 2.78125 -1.5625 C 2.945312 -1.34375 3.203125 -1.234375 3.546875 -1.234375 C 4.023438 -1.234375 4.367188 -1.390625 4.578125 -1.703125 C 4.785156 -2.023438 4.890625 -2.550781 4.890625 -3.28125 L 4.890625 -6.203125 L 6.59375 -6.203125 L 6.59375 0 Z M 5.28125 0 "/></g></g><g transform="translate(117.650203, 138.393759)"><g><path d="M 4.34375 -6.328125 C 5.070312 -6.328125 5.644531 -6.039062 6.0625 -5.46875 C 6.476562 -4.894531 6.6875 -4.109375 6.6875 -3.109375 C 6.6875 -2.085938 6.472656 -1.296875 6.046875 -0.734375 C 5.617188 -0.171875 5.035156 0.109375 4.296875 0.109375 C 3.566406 0.109375 2.992188 -0.15625 2.578125 -0.6875 L 2.46875 -0.6875 L 2.1875 0 L 0.890625 0 L 0.890625 -8.640625 L 2.578125 -8.640625 L 2.578125 -6.625 C 2.578125 -6.375 2.554688 -5.96875 2.515625 -5.40625 L 2.578125 -5.40625 C 2.972656 -6.019531 3.5625 -6.328125 4.34375 -6.328125 Z M 3.796875 -4.96875 C 3.378906 -4.96875 3.070312 -4.835938 2.875 -4.578125 C 2.6875 -4.328125 2.585938 -3.90625 2.578125 -3.3125 L 2.578125 -3.125 C 2.578125 -2.457031 2.675781 -1.976562 2.875 -1.6875 C 3.070312 -1.40625 3.390625 -1.265625 3.828125 -1.265625 C 4.171875 -1.265625 4.441406 -1.421875 4.640625 -1.734375 C 4.847656 -2.054688 4.953125 -2.523438 4.953125 -3.140625 C 4.953125 -3.742188 4.847656 -4.195312 4.640625 -4.5 C 4.441406 -4.8125 4.160156 -4.96875 3.796875 -4.96875 Z M 3.796875 -4.96875 "/></g></g><g transform="translate(124.847832, 138.393759)"><g><path d="M 3.453125 -5.125 C 3.097656 -5.125 2.816406 -5.007812 2.609375 -4.78125 C 2.410156 -4.550781 2.296875 -4.226562 2.265625 -3.8125 L 4.640625 -3.8125 C 4.628906 -4.226562 4.519531 -4.550781 4.3125 -4.78125 C 4.101562 -5.007812 3.816406 -5.125 3.453125 -5.125 Z M 3.703125 0.109375 C 2.703125 0.109375 1.921875 -0.164062 1.359375 -0.71875 C 0.796875 -1.269531 0.515625 -2.050781 0.515625 -3.0625 C 0.515625 -4.101562 0.773438 -4.90625 1.296875 -5.46875 C 1.816406 -6.039062 2.535156 -6.328125 3.453125 -6.328125 C 4.328125 -6.328125 5.007812 -6.078125 5.5 -5.578125 C 5.988281 -5.078125 6.234375 -4.382812 6.234375 -3.5 L 6.234375 -2.6875 L 2.234375 -2.6875 C 2.242188 -2.195312 2.382812 -1.816406 2.65625 -1.546875 C 2.925781 -1.285156 3.300781 -1.15625 3.78125 -1.15625 C 4.15625 -1.15625 4.507812 -1.191406 4.84375 -1.265625 C 5.175781 -1.347656 5.519531 -1.472656 5.875 -1.640625 L 5.875 -0.328125 C 5.582031 -0.179688 5.265625 -0.0703125 4.921875 0 C 4.585938 0.0703125 4.179688 0.109375 3.703125 0.109375 Z M 3.703125 0.109375 "/></g></g></g></svg>